Patient4_TMGait_0pt3_01_right_29_EMG.mot
version=1
nRows=40
nColumns=33
inDegrees=no
endheader
time	1LAddLong	2LGlutMax	3LGlutMed	4LIliopsoas	5LSemiMemb	6LBicFemLong	7LRecFem	8LVastMed	9LVastLat	10LGasMed	11LTibAnt	12lTibPost	13LPeroneusLong	14LSol	15LExtDigLong	16LFlexDigLong	17RAddLong	18RGlutMax	19RGlutMed	20RIliopsoas	21RSemiMemb	22RBicFemLong	23RRecFem	24RVastMed	25RVastLat	26RGasMed	27RTibAnt	28RTibPost	29RPeroneusLong	30RSol	31RExtDigLong	32RFlexDigLong
55.215	0.011749	-0.11124	-0.021973	0.016174	0.027771	-0.047455	0.06073	-0.015106	-0.29068	0.28427	0.001373	0.015106	-0.10803	-0.11108	-0.0177	-0.006866	0.001373	-0.17288	0.048523	-0.097046	-0.023804	0.19852	-0.19684	0.036011	-0.040131	-0.020599	-0.008087	-0.011139	-0.08316	0.046387	-0.000916	-0.022736
55.216	0.007019	-0.087128	0.16251	0.002899	0.032959	-0.002594	-0.040283	-0.002899	-0.23346	0.17761	-0.011292	0.003967	-0.075684	-0.12207	-0.011597	-0.019531	0.011902	-0.15442	-0.03067	-0.020142	0.012512	0.11948	-0.43121	-0.039215	-0.112	0.089722	0.016632	0.009918	-0.05249	-0.13687	-0.001221	-0.022736
55.217	0.000305	-0.10147	0.12695	0.016632	0.033264	0.038452	-0.1799	0.007629	-0.13245	0.21637	0.029297	0.011749	-0.097809	-0.18448	-0.017395	-0.022888	0.002594	-0.15808	-0.099945	0.094299	-0.043945	0.1326	-0.66605	-0.042419	0.016785	0.070801	0.012665	-0.30533	-0.041046	-0.24719	0.000458	-0.027161
55.218	-0.015259	-0.076599	0.075378	0.005035	0.002289	0.091553	-0.12497	0.008545	-0.064392	-0.074768	0.039368	0.022736	-0.097504	-0.15442	-0.002136	-0.009918	0.005035	-0.06073	-0.057831	0.074768	-0.25757	0.090027	-0.52536	0.04303	0.046234	0.005188	0.035095	0.083618	-0.11429	-0.28503	-0.001526	-0.024414
55.219	-0.016937	-0.059662	0.006714	0.020142	0.029602	0.098572	-0.089264	0.006409	-0.007629	-0.20309	0.029602	0.019531	-0.10239	-0.07019	-0.003815	-0.012207	0.011749	-0.098877	0.016174	0.11566	0.010223	-0.072632	-0.31982	0.056458	0.032806	0.006409	0.029297	0.23819	-0.082397	-0.057678	0	-0.016022
55.22	-0.03006	-0.1004	-0.024261	0.016937	0.018463	0.12116	-0.025635	-0.00351	-0.018616	-0.28046	0.023193	0.013428	-0.11948	0.006866	0.026245	-0.00412	-0.003815	-0.15106	0.11917	0.17471	0.094147	-0.13321	-0.26581	0.023041	0.1059	0.011749	-0.046692	0.11993	-0.031433	0.20401	-0.00061	-0.018616
55.221	-0.033875	-0.10696	-0.042572	0.018921	-0.063782	0.079041	-0.065918	-0.012665	-0.013275	-0.18799	0.019684	0.030518	-0.10803	0.076447	0.018311	0.008087	-0.014038	-0.14694	0.16754	0.12634	0.083923	-0.24536	-0.37338	-0.003052	0.13016	0.021515	-0.072632	-0.3305	-0.027161	0.21332	-0.002747	-0.014496
55.222	-0.027161	-0.084534	-0.002594	0.001831	-0.15595	0.018005	-0.097351	-0.006409	-0.011139	-0.11292	-0.02243	0.030365	-0.057831	0.1181	-0.016022	0.016479	0.004578	-0.12833	0.20279	0.025177	0.12405	-0.28595	-0.37155	-0.014191	0.076447	0.016632	-0.052185	-0.39749	-0.045471	0.23941	-0.003052	-0.006256
55.223	-0.012512	-0.090027	-0.004272	-0.014648	-0.11536	-0.05722	-0.12512	-0.001831	0.010986	-0.066071	-0.077362	0.028076	-0.055542	0.094299	-0.022583	0.020142	-0.003052	-0.12421	0.17151	-0.020599	0.012512	-0.22598	-0.40497	-0.006714	0.018463	0.012207	0.19058	0.2887	-0.097809	0.080872	-0.000916	-0.014038
55.224	-0.005493	-0.078278	-0.00061	-0.010376	-0.09613	-0.089569	-0.090027	-0.001373	-0.01297	-0.086365	-0.060272	0.025024	-0.098114	0.12039	0.003967	0.032196	-0.023804	-0.17548	0.023499	-0.000458	-0.061951	-0.15945	-0.39887	0.024109	0.066681	0.010223	0.38681	0.19196	-0.14175	0.027008	-0.000916	-0.017548
55.225	0.003967	-0.029144	-0.037842	-0.016022	-0.062256	-0.12894	-0.093231	-0.00946	-0.010376	-0.10727	-0.027466	0.035858	-0.12268	0.11765	0.024261	0.018311	0.003815	-0.11993	-0.23666	0.14084	-0.039063	-0.22018	-0.3627	0.023346	0.090332	0.010834	0.38162	0.072784	-0.088806	0.21118	0	-0.012817
55.226	0.01358	-0.015869	-0.046844	0.030212	0.061646	-0.054321	-0.10025	-0.004578	0.001373	-0.11078	0.005646	0.058441	-0.06424	0.10773	0.018158	0.018616	0.027924	-0.062714	-0.3447	0.22934	0.055237	-0.2475	-0.32806	-0.019989	0.040283	0.009003	0.001984	0.018616	-0.085297	0.11627	-0.001984	-0.001373
55.227	0.004425	-0.029755	-0.027313	0.039215	0.089722	0.002747	-0.10605	0.009918	-0.002594	-0.1004	-0.003967	0.031128	0	0.12528	0.013885	0.058899	0.029755	-0.094299	0.004578	0.19547	-0.079651	-0.23499	-0.3064	-0.02182	0.02533	0.012665	-0.99991	0.00351	-0.070648	0.000305	0.000916	-0.012054
55.228	0.010071	0.012054	0.050049	0.001221	0.10025	-0.014038	-0.15793	0.005341	0.005188	-0.061493	-0.015106	-0.006104	0.013123	0.14099	-0.024872	0.005493	0.016479	-0.023651	0.24582	0.013428	-0.18524	-0.12131	-0.32898	-0.03067	0.075531	0.005951	-1.0258	0.00061	-0.097198	-0.097351	-0.00351	-0.008698
55.229	0.012817	0.050964	0.013428	-0.003662	0.080261	0.016632	-0.16617	0.010223	-0.07843	-0.01709	0.013428	0.019073	-0.006561	0.065002	-0.041351	-0.000763	0.023346	-0.089569	0.055389	-0.03006	0.042267	-0.070953	-0.29633	-0.056152	0.094452	-0.010223	-0.4361	-0.01358	-0.19409	-0.18967	-0.002289	-0.016785
55.23	-0.009308	0.019073	-0.010376	0.005035	0.078735	0.067749	-0.16892	0.016937	-0.099945	0.056915	0.01709	0.024414	-0.063934	-0.002136	-0.04364	-0.005646	0.031738	-0.063324	-0.030212	-0.041504	0.16556	0.035248	-0.21591	-0.078583	0.10284	-0.009155	0.098877	-0.022888	-0.14267	-0.16388	-0.005188	-0.010071
55.231	-0.009613	0.046082	-0.005798	0.014954	0.031891	0.10162	-0.18951	0.020294	-0.026245	0.034332	-0.001831	0.006866	0.15686	-0.015106	0.023651	-0.031433	0.02243	-0.079193	0.16892	-0.042267	0.15152	0.16876	-0.21866	-0.098572	0.032349	-0.005341	0.46173	-0.024414	0.028992	-0.13306	-0.001526	-0.005188
55.232	-0.005493	0.033569	0.009918	0.013428	-0.022888	0.089111	-0.1622	0.020294	0.043335	0.13565	-0.010071	0.004578	0.41565	0.016479	0.037079	-0.026093	-0.007935	-0.083313	0.57968	0.053406	-0.027161	0.16892	-0.17578	-0.10773	0.063171	0.007629	-0.052338	-0.018616	0.42404	-0.27634	0.001678	-0.000153
55.233	-0.015106	0.047607	0.019684	0.009766	-0.060425	0.11902	-0.15457	0.026855	0.028381	0.19531	-0.004425	-0.003204	0.34515	0.061188	0.027618	-0.034332	0.028839	-0.058594	0.11688	0.040588	-0.10956	0.070496	-0.1767	-0.042725	0.046539	0.004272	-0.67902	-0.011139	0.32974	-0.39368	-0.001221	-0.001678
55.234	-0.02121	0.090179	0.038757	0.027313	-0.097961	0.12512	-0.14496	0.014038	0.006104	0.12222	-0.018005	0.003815	0.58685	0.10346	0.049286	0.010681	-0.005341	-0.086975	0.002899	-0.067291	-0.13672	0.14877	-0.23773	-0.014496	0.006561	-0.03067	1.1012	-0.016937	-0.45059	-0.19318	0.000305	-0.006409
55.235	-0.019226	0.069275	0.029144	0.02243	-0.091705	0.13901	-0.12985	0.010529	-0.011597	-0.0383	-0.0177	0.028076	0.3157	0.19241	0.048218	-0.049591	-0.022736	-0.13062	0.086823	-0.074615	-0.14633	0.043488	-0.15366	-0.051575	-0.54062	-0.046539	0.98831	-0.010376	-0.45975	-0.015717	-0.003204	-0.016174
55.236	-0.006714	0.023193	0.006104	0.005646	-0.096893	0.11688	-0.16144	0.016174	0.003662	-0.1268	0.013123	0.054474	-0.20996	0.18616	0.033264	-0.13794	-0.026855	-0.12482	-0.005493	-0.06134	-0.036926	-0.12177	-0.12268	-0.02594	-0.36529	-0.03006	0.022278	-0.011749	0.088959	-0.028534	-0.005798	-0.009155
55.237	0.00473	0.053711	-0.003357	-0.012512	-0.013733	0.073395	-0.15854	0.00946	0.006104	-0.16113	0.026245	-0.077515	-0.47821	0.21378	-0.05188	-0.086212	-0.038452	-0.076141	-0.1506	-0.009003	0.025787	-0.15182	-0.1535	0.087891	-0.1091	0.005798	-0.25818	-0.00824	0.29694	-0.082703	-0.006714	-0.007477
55.238	0.008087	0.074005	0.01297	-0.007629	0.039368	0.05249	-0.16205	0.006714	0.028381	-0.17166	-0.011749	-0.007172	-0.19806	0.25162	-0.053406	0.066223	-0.011139	-0.077667	-0.04303	0.019379	0.11475	-0.17044	-0.31891	0.020752	-0.039978	0.0737	-0.7132	-0.011749	0.026093	0.2179	-0.006256	-0.014343
55.239	0.013428	0.063019	0.010223	0.005035	-0.020294	0.004272	-0.18829	0.004272	0.072021	-0.19836	-0.050201	-0.020142	-0.23392	0.25101	-0.039825	-0.19501	0.019531	-0.13458	-0.10956	0.1297	0.15671	-0.11932	-0.36896	-0.01358	-0.045624	0.063324	-0.7544	-0.011444	-0.31723	0.33829	-0.010376	-0.014038
55.24	0.032043	0.029755	-0.029907	0.000763	-0.044556	-0.036316	-0.21347	0.004578	0.09079	-0.16647	-0.029449	-0.00351	-0.15411	-0.13351	-0.074768	0.097961	0.066833	-0.15213	-0.11551	0.14404	0.19913	-0.13123	-0.28854	-0.11551	-0.03479	-0.014343	-0.34561	-0.011749	-0.23865	0.30624	-0.000458	-0.007782
55.241	0.064545	0.048981	0.06897	-0.002441	0.054169	-0.050964	-0.20416	0.00824	0.17731	-0.13809	-0.023956	-0.033112	0.05188	-0.78201	-0.034637	0.28397	0.078278	-0.16266	-0.0737	0.16281	-0.032043	0.038605	-0.31143	-0.094604	-0.007172	-0.024872	-0.07843	-0.014038	-0.15961	0.15762	-0.003357	-0.008087
55.242	0.061188	0.044708	0.073853	0.015106	0.10819	0.090637	-0.12146	0.025024	0.19852	-0.064545	-0.013275	-0.038147	0.11032	-0.66345	0.004425	-0.037994	0.038147	-0.12268	-0.14694	0.17166	-0.26932	0.096893	-0.42648	-0.04837	0.01358	-0.041962	-0.007629	-0.011292	0.064697	0.010223	-0.001373	-0.013885
55.243	0.037079	0.044708	0.045624	0.02243	0.07782	0.10239	-0.08667	0.033264	0.10696	-0.046082	0.000458	-0.024567	0.055542	-0.24292	0.061951	-0.032654	-0.009003	-0.13596	-0.29129	0.067596	-0.12421	0.14679	-0.41794	-0.010223	-0.029297	-0.092773	-0.030823	0.001526	0.24521	0.018005	-0.002441	-0.011139
55.244	0.040436	0.02121	0.095825	0.015411	0.027771	0.060272	-0.1091	0.019379	0.075684	0.19959	0.015259	-0.019836	-0.075226	-0.11688	0.025024	0.08667	-0.050507	-0.14587	-0.15243	0.010223	0.009155	0.10346	-0.39078	0.13321	0.02533	-0.087891	-0.1001	-0.000916	0.28686	0.21774	-0.003052	-0.012817
55.245	0.026245	-0.020905	0.14816	0.013123	0.000763	0.028076	-0.083313	0.002441	0.068359	0.34637	0.013733	-0.032806	0.096588	-0.11581	0.020142	0.13992	-0.029144	-0.14771	0.014648	-0.024109	-0.11826	0.03952	-0.2214	0.13275	0.049591	-0.032654	-0.079041	-0.016174	0.21759	0.45837	-0.002594	-0.014954
55.246	0.023804	-0.059967	0.13672	0.009918	-0.009918	-0.020905	-0.05722	-0.019073	0.050812	0.37125	0.009613	-0.02121	0.59876	0.11215	0.064545	0.14679	-0.018921	-0.10666	0.056305	-0.072327	0.15518	-0.005035	-0.05722	0.2359	0.020599	0.070648	-0.061951	-0.018463	0.18372	0.7135	-0.002136	-0.017853
55.247	0.009308	-0.074005	0.057373	0.00885	-0.003967	-0.018768	-0.007782	-0.019073	0.012817	0.30487	-0.002289	-0.010834	0.76599	0.31235	0.093994	0.16419	0.006561	-0.11444	-0.11078	-0.049438	0.4245	-0.07431	-0.0383	0.16403	-0.10422	0.005951	-0.003815	-0.011597	0.0914	0.82214	-0.001526	-0.013733
55.248	0.003815	-0.09079	-0.013885	0.010071	-0.010986	0.030823	0.028381	-0.013885	0.020905	-0.009003	0.001526	-0.011139	0.27191	0.38834	0.079193	0.159	0.018311	-0.077362	-0.10666	-0.06424	0.28809	-0.005188	-0.069427	0.003052	-0.21133	-0.040588	0.057068	-0.007172	0.022278	0.60379	-0.003662	-0.00946
55.249	0.011597	-0.1384	-0.032806	0.003815	-0.009003	0.15808	0.044403	-0.008087	0.027008	-0.31815	-0.0177	-0.011139	-0.25085	0.33524	0.026245	0.15381	0.012207	-0.052185	-0.012665	-0.036011	0.1149	0.002136	-0.32013	0.059357	-0.08728	0.005035	-0.054321	0.027008	0.046387	0.16068	-0.00061	-0.005188
55.25	0.01358	-0.15289	0.048065	0.005646	0.014343	0.13733	0.046234	-0.005188	0.034485	-0.18845	-0.016632	-0.003052	-0.7869	0.15274	-0.08194	0.15198	-0.021515	0.023346	0.12741	-0.06958	0.10651	0.01236	-0.48935	0.10819	0.04776	0.045929	-0.30182	0.010681	0.14816	0.21301	0.000153	-0.009766
55.251	0.016479	-0.215	0.027008	0.000763	0.008698	0.15137	0.061493	-0.006409	0.046692	-0.08255	0.00946	-0.000916	0.14008	0.04303	-0.045319	0.16098	-0.042114	0.03891	0.27359	-0.09079	0.21637	-0.001373	-0.22644	0.055542	0.018921	0.012207	-0.09613	-0.000305	0.1297	0.054932	-0.001831	-0.009613
55.252	0.009003	-0.2887	0.044556	-0.006409	0.019836	0.1648	0.032806	0.009003	0.042572	0.024261	0.00946	0.000916	0.42496	-0.017548	0.010529	0.12528	-0.041809	0.00885	-0.10056	-0.04303	0.025024	0.15091	-0.050507	-0.28671	-0.12314	0.014954	0.12772	-0.004425	-0.12985	-0.10574	-0.005341	-0.006866
55.253	-0.009308	-0.31998	0.059204	0.005035	0.006714	0.3035	0.10803	0.001221	0.018616	-0.010834	0.004272	-0.001221	0.020447	-0.21164	0.014191	0.086517	-0.043945	0.001984	-0.36102	-0.028992	-0.10407	0.23025	-0.21194	-0.37125	-0.16342	0.017548	0.6076	0.003815	-0.33829	-0.020447	-0.001373	-0.007935
55.254	-0.017395	-0.32105	0.048523	0.010529	-0.007935	0.26611	0.1445	-0.001221	-0.01358	-0.071411	0.019226	-0.008087	0.13275	-0.48187	-0.003815	0.070801	-0.035553	0.014343	-0.31876	-0.023193	0.092468	0.053864	-0.16342	-0.32242	-0.20691	0.00946	0.61539	0.010071	-0.44754	0.24063	-0.001984	-0.001678
